HIERARCHY
ROOT joint_Root
{
	OFFSET 0.0 0.0 0.0
	CHANNELS 6 Xposition Yposition Zposition Zrotation Xrotation Yrotation 
	JOINT Hips
	{
		OFFSET 4.5925 91.4895 -427.239
		CHANNELS 6 Xposition Yposition Zposition Zrotation Xrotation Yrotation 
		JOINT Spine
		{
			OFFSET 15.7357 0.0 0.0
			CHANNELS 6 Xposition Yposition Zposition Zrotation Xrotation Yrotation 
			JOINT Chest
			{
				OFFSET 8.98455 -0.406207 0.0
				CHANNELS 6 Xposition Yposition Zposition Zrotation Xrotation Yrotation 
				JOINT Neck
				{
					OFFSET 16.3773 0.0 0.0
					CHANNELS 6 Xposition Yposition Zposition Zrotation Xrotation Yrotation 
					JOINT Head
					{
						OFFSET 6.45672 0.0 0.0
						CHANNELS 6 Xposition Yposition Zposition Zrotation Xrotation Yrotation 
						End Site
						{
							OFFSET 0.0 0.0 0.0
						}
					}
				}
				JOINT Shoulder_L
				{
					OFFSET 12.9942 -0.242716 4.98039
					CHANNELS 6 Xposition Yposition Zposition Zrotation Xrotation Yrotation 
					JOINT UpperArm_L
					{
						OFFSET 5.34809 0.0 0.0
						CHANNELS 6 Xposition Yposition Zposition Zrotation Xrotation Yrotation 
						JOINT LowerArm_L
						{
							OFFSET 24.3286 1.87007e-05 0.0
							CHANNELS 6 Xposition Yposition Zposition Zrotation Xrotation Yrotation 
							JOINT Hand_L
							{
								OFFSET 22.2916 0.0 0.0
								CHANNELS 6 Xposition Yposition Zposition Zrotation Xrotation Yrotation 
								End Site
								{
									OFFSET 0.0 0.0 0.0
								}
							}
						}
					}
				}
				JOINT Shoulder_R
				{
					OFFSET 12.9945 -0.242716 -4.98039
					CHANNELS 6 Xposition Yposition Zposition Zrotation Xrotation Yrotation 
					JOINT UpperArm_R
					{
						OFFSET -5.34813 0.0 0.0
						CHANNELS 6 Xposition Yposition Zposition Zrotation Xrotation Yrotation 
						JOINT LowerArm_R
						{
							OFFSET -24.3289 0.000322201 0.0
							CHANNELS 6 Xposition Yposition Zposition Zrotation Xrotation Yrotation 
							JOINT Hand_R
							{
								OFFSET -22.2915 -0.000108084 0.0
								CHANNELS 6 Xposition Yposition Zposition Zrotation Xrotation Yrotation 
								End Site
								{
									OFFSET 0.0 0.0 0.0
								}
							}
						}
					}
				}
			}
		}
		JOINT UpperLeg_L
		{
			OFFSET -2.19248 -6.46944 0.0
			CHANNELS 6 Xposition Yposition Zposition Zrotation Xrotation Yrotation 
			JOINT LowerLeg_L
			{
				OFFSET 39.0811 0.0 -1.23785e-05
				CHANNELS 6 Xposition Yposition Zposition Zrotation Xrotation Yrotation 
				JOINT Foot_L
				{
					OFFSET 40.9854 0.0 -1.26872e-05
					CHANNELS 6 Xposition Yposition Zposition Zrotation Xrotation Yrotation 
					JOINT Toes_L
					{
						OFFSET 11.7543 0.0 0.0
						CHANNELS 6 Xposition Yposition Zposition Zrotation Xrotation Yrotation 
						End Site
						{
							OFFSET 0.0 0.0 0.0
						}
					}
				}
			}
		}
		JOINT UpperLeg_R
		{
			OFFSET -2.19251 6.46944 0.0
			CHANNELS 6 Xposition Yposition Zposition Zrotation Xrotation Yrotation 
			JOINT LowerLeg_R
			{
				OFFSET -39.0811 -0.00228153 -0.0401928
				CHANNELS 6 Xposition Yposition Zposition Zrotation Xrotation Yrotation 
				JOINT Foot_R
				{
					OFFSET -40.9854 0.0 0.0
					CHANNELS 6 Xposition Yposition Zposition Zrotation Xrotation Yrotation 
					JOINT Toes_R
					{
						OFFSET -11.7543 0.0 0.0
						CHANNELS 6 Xposition Yposition Zposition Zrotation Xrotation Yrotation 
						End Site
						{
							OFFSET 0.0 0.0 0.0
						}
					}
				}
			}
		}
	}
}
MOTION
Frames:	9
Frame Time:	0.0333333
0.000000 0.000000 0.000000 0.000000 0.000000 -0.000000 -0.338485 90.743700 -6.521890 89.054900 -3.384940 9.833040 15.735700 0.000005 -0.000001 89.360900 75.541300 -90.143900 8.984550 -0.406207 -0.000000 21.147500 -0.405435 -1.496160 16.377300 -0.000001 -0.000001 11.807600 -4.002140 3.119110 6.456720 -0.000001 -0.000000 -11.652200 -3.986750 0.943600 12.994200 -0.242716 4.980390 -88.826600 -4.362090 -74.927500 5.348090 -0.000007 -0.000001 -73.719800 -14.251900 -78.032300 24.328600 0.000019 0.000005 52.008900 -16.335100 -102.389000 22.291600 -0.000001 0.000005 29.890500 4.747430 12.295800 12.994500 -0.242716 -4.980390 89.998700 0.007826 -80.859100 -5.348130 -0.000001 -0.000004 -67.841000 -17.504000 -77.723200 -24.328900 0.000322 -0.000009 23.102900 -7.116310 -106.193000 -22.291500 -0.000108 -0.000004 35.517200 5.311870 -0.263358 -2.192480 -6.469440 -0.000000 -174.901000 -12.708000 -5.846290 39.081100 -0.000007 -0.000012 -0.143261 0.220948 32.959300 40.985400 -0.000006 -0.000013 0.783061 5.766380 -67.135100 11.754300 -0.000000 0.000003 -0.000090 -0.000937 -16.613600 -2.192510 6.469440 -0.000001 176.134000 21.166600 175.241000 -39.081100 -0.002282 -0.040193 -0.086342 0.142368 32.195900 -40.985400 0.000008 0.000006 5.608000 13.394300 -67.965700 -11.754300 -0.000006 -0.000006 -0.003081 -0.041520 -18.261700
0.000000 0.000000 0.000000 0.000000 0.000000 -0.000000 -0.340404 90.743200 -6.467010 89.060600 -3.361620 9.787370 15.735700 0.000005 -0.000001 89.345300 75.558400 -90.124200 8.984550 -0.406207 -0.000000 21.113200 -0.412070 -1.487000 16.377300 -0.000001 -0.000001 11.735000 -3.982070 3.113370 6.456720 -0.000001 -0.000000 -11.606600 -3.970860 0.994467 12.994200 -0.242716 4.980390 -88.820900 -4.379680 -74.916200 5.348090 -0.000007 -0.000001 -73.758500 -14.246300 -78.049000 24.328600 0.000019 0.000005 51.935600 -16.327200 -102.415000 22.291600 -0.000001 0.000005 29.928100 4.750400 12.241300 12.994500 -0.242716 -4.980390 89.995000 0.031102 -80.866500 -5.348130 -0.000001 -0.000004 -67.790300 -17.535900 -77.698600 -24.328900 0.000322 -0.000009 23.046800 -7.074400 -106.145000 -22.291500 -0.000108 -0.000004 35.603500 5.312700 -0.286894 -2.192480 -6.469440 -0.000000 -174.912000 -12.695000 -5.850660 39.081100 -0.000007 -0.000012 -0.144530 0.222932 32.956200 40.985400 -0.000006 -0.000013 0.775651 5.752050 -67.174100 11.754300 -0.000000 0.000003 -0.000083 -0.000880 -16.611400 -2.192510 6.469440 -0.000001 176.130000 21.164400 175.231000 -39.081100 -0.002282 -0.040193 -0.086351 0.142328 32.205500 -40.985400 0.000008 0.000006 5.642970 13.371100 -68.020500 -11.754300 -0.000006 -0.000006 -0.003314 -0.044106 -18.366900
0.000000 0.000000 0.000000 0.000000 0.000000 -0.000000 -0.333203 90.744900 -6.407370 89.066400 -3.365880 9.779570 15.735700 0.000005 -0.000001 89.378800 75.573200 -90.151300 8.984550 -0.406207 -0.000000 21.083900 -0.394326 -1.477280 16.377300 -0.000001 -0.000001 11.739900 -3.996320 3.166280 6.456720 -0.000001 -0.000000 -11.594700 -3.974180 0.981519 12.994200 -0.242716 4.980390 -88.824100 -4.365020 -74.907200 5.348090 -0.000007 -0.000001 -73.750500 -14.226300 -78.020400 24.328600 0.000019 0.000005 51.920700 -16.312300 -102.411000 22.291600 -0.000001 0.000005 30.056700 4.751850 12.214500 12.994500 -0.242716 -4.980390 89.995900 0.025490 -80.848200 -5.348130 -0.000001 -0.000004 -67.760900 -17.533900 -77.641200 -24.328900 0.000322 -0.000009 23.125200 -7.058640 -106.053000 -22.291500 -0.000108 -0.000004 35.593400 5.308080 -0.155388 -2.192480 -6.469440 -0.000000 -174.924000 -12.709300 -5.808610 39.081100 -0.000007 -0.000012 -0.140743 0.217200 32.943000 40.985400 -0.000006 -0.000013 0.785115 5.755690 -67.211800 11.754300 -0.000000 0.000003 -0.000084 -0.000885 -16.611600 -2.192510 6.469440 -0.000001 176.098000 21.145100 175.278000 -39.081100 -0.002282 -0.040193 -0.088090 0.145183 32.188800 -40.985400 0.000008 0.000006 5.595520 13.388300 -68.044100 -11.754300 -0.000006 -0.000006 -0.003176 -0.042583 -18.304900
0.000000 0.000000 0.000000 0.000000 0.000000 -0.000000 -0.332363 90.743300 -6.351880 89.076800 -3.341330 9.750020 15.735700 0.000005 -0.000001 89.379300 75.585800 -90.151700 8.984550 -0.406207 -0.000000 21.058700 -0.393646 -1.477330 16.377300 -0.000001 -0.000001 11.739300 -4.008180 3.204440 6.456720 -0.000001 -0.000000 -11.526900 -3.998380 1.040860 12.994200 -0.242716 4.980390 -88.825400 -4.346260 -74.861100 5.348090 -0.000007 -0.000001 -73.783800 -14.113500 -78.105700 24.328600 0.000019 0.000005 51.904100 -16.127100 -102.285000 22.291600 -0.000001 0.000005 30.356500 4.753170 12.190100 12.994500 -0.242716 -4.980390 89.992400 0.047128 -80.813500 -5.348130 -0.000001 -0.000004 -67.782700 -17.515400 -77.613000 -24.328900 0.000322 -0.000009 23.037100 -6.979450 -105.948000 -22.291500 -0.000108 -0.000004 35.469500 5.306310 -0.105291 -2.192480 -6.469440 -0.000000 -174.934000 -12.660600 -5.803440 39.081100 -0.000007 -0.000012 -0.147445 0.227566 32.940300 40.985400 -0.000006 -0.000013 0.776869 5.760660 -67.246100 11.754300 -0.000000 0.000003 -0.000087 -0.000914 -16.612700 -2.192510 6.469440 -0.000001 176.086000 21.152500 175.283000 -39.081100 -0.002282 -0.040193 -0.086746 0.142969 32.203200 -40.985400 0.000008 0.000006 5.615030 13.359300 -68.096400 -11.754300 -0.000006 -0.000006 -0.003072 -0.041418 -18.257500
0.000000 0.000000 0.000000 0.000000 0.000000 -0.000000 -0.329391 90.742700 -6.288970 89.066900 -3.293130 9.767920 15.735700 0.000005 -0.000001 89.408400 75.586600 -90.169000 8.984550 -0.406207 -0.000000 21.057500 -0.378039 -1.456690 16.377300 -0.000001 -0.000001 11.773600 -4.030710 3.238040 6.456720 -0.000001 -0.000000 -11.501600 -4.055770 1.074320 12.994200 -0.242716 4.980390 -88.829100 -4.322250 -74.826400 5.348090 -0.000007 -0.000001 -73.838300 -13.928300 -78.224700 24.328600 0.000019 0.000005 51.850300 -15.746300 -102.034000 22.291600 -0.000001 0.000005 30.466600 4.759720 12.069400 12.994500 -0.242716 -4.980390 89.991500 0.052023 -80.766900 -5.348130 -0.000001 -0.000004 -67.773300 -17.509200 -77.513200 -24.328900 0.000322 -0.000009 22.852100 -6.880520 -105.869000 -22.291500 -0.000108 -0.000004 35.479600 5.309500 -0.195907 -2.192480 -6.469440 -0.000000 -174.929000 -12.607100 -5.751360 39.081100 -0.000007 -0.000012 -0.144226 0.222554 32.945600 40.985400 -0.000006 -0.000013 0.775345 5.746450 -67.288600 11.754300 -0.000000 0.000003 -0.000088 -0.000919 -16.612900 -2.192510 6.469440 -0.000001 176.082000 21.147800 175.353000 -39.081100 -0.002282 -0.040193 -0.082669 0.136428 32.216100 -40.985400 0.000008 0.000006 5.740180 13.262300 -68.187200 -11.754300 -0.000006 -0.000006 -0.003145 -0.042229 -18.290500
0.000000 0.000000 0.000000 0.000000 0.000000 -0.000000 -0.330930 90.737100 -6.242810 89.083800 -3.242010 9.766650 15.735700 0.000005 -0.000001 89.374000 75.592300 -90.126800 8.984550 -0.406207 -0.000000 21.045800 -0.393796 -1.437970 16.377300 -0.000001 -0.000001 11.750600 -4.036170 3.197870 6.456720 -0.000001 -0.000000 -11.407600 -4.065530 1.098430 12.994200 -0.242716 4.980390 -88.822600 -4.340910 -74.809000 5.348090 -0.000007 -0.000001 -73.982400 -13.788900 -78.227800 24.328600 0.000019 0.000005 51.976400 -15.436000 -101.757000 22.291600 -0.000001 0.000005 29.887000 4.758080 12.100000 12.994500 -0.242716 -4.980390 89.984900 0.092690 -80.744900 -5.348130 -0.000001 -0.000004 -67.705100 -17.457400 -77.467300 -24.328900 0.000322 -0.000009 22.890100 -6.820420 -105.710000 -22.291500 -0.000108 -0.000004 35.481300 5.309860 -0.206120 -2.192480 -6.469440 -0.000000 -174.944000 -12.559000 -5.730520 39.081100 -0.000007 -0.000012 -0.149150 0.230031 32.959200 40.985400 -0.000006 -0.000013 0.773602 5.758770 -67.328000 11.754300 -0.000000 0.000003 -0.000093 -0.000966 -16.614700 -2.192510 6.469440 -0.000001 176.052000 21.142500 175.372000 -39.081100 -0.002282 -0.040193 -0.083254 0.137162 32.252400 -40.985400 0.000008 0.000006 5.744900 13.208500 -68.242100 -11.754300 -0.000006 -0.000006 -0.003215 -0.043014 -18.322500
0.000000 0.000000 0.000000 0.000000 0.000000 -0.000000 -0.335887 90.734900 -6.201980 89.082800 -3.188690 9.739890 15.735700 0.000005 -0.000001 89.321900 75.597300 -90.059400 8.984550 -0.406207 -0.000000 21.035300 -0.417428 -1.403060 16.377300 -0.000001 -0.000001 11.713000 -4.026780 3.190290 6.456720 -0.000001 -0.000000 -11.397100 -4.017480 1.022420 12.994200 -0.242716 4.980390 -88.826100 -4.336120 -74.836100 5.348090 -0.000007 -0.000001 -73.980900 -13.716400 -78.122300 24.328600 0.000019 0.000005 52.146800 -15.328900 -101.610000 22.291600 -0.000001 0.000005 29.415600 4.746800 12.307300 12.994500 -0.242716 -4.980390 89.986500 0.082870 -80.720500 -5.348130 -0.000001 -0.000004 -67.676800 -17.343100 -77.405100 -24.328900 0.000322 -0.000009 23.030800 -6.835100 -105.640000 -22.291500 -0.000108 -0.000004 35.451000 5.303740 -0.032917 -2.192480 -6.469440 -0.000000 -174.946000 -12.573100 -5.737630 39.081100 -0.000007 -0.000012 -0.147069 0.226732 32.969700 40.985400 -0.000006 -0.000013 0.784965 5.791080 -67.360000 11.754300 -0.000000 0.000003 -0.000088 -0.000918 -16.612900 -2.192510 6.469440 -0.000001 176.062000 21.112300 175.374000 -39.081100 -0.002282 -0.040193 -0.080117 0.132146 32.261200 -40.985400 0.000008 0.000006 5.739490 13.142000 -68.279500 -11.754300 -0.000006 -0.000006 -0.003107 -0.041804 -18.273300
0.000000 0.000000 0.000000 0.000000 0.000000 -0.000000 -0.325918 90.738800 -6.165410 89.112300 -3.180600 9.735630 15.735700 0.000005 -0.000001 89.292800 75.587600 -90.035700 8.984550 -0.406207 -0.000000 21.054500 -0.432660 -1.411040 16.377300 -0.000001 -0.000001 11.673800 -4.003050 3.179820 6.456720 -0.000001 -0.000000 -11.444600 -3.957740 1.020360 12.994200 -0.242716 4.980390 -88.825100 -4.342860 -74.845600 5.348090 -0.000007 -0.000001 -73.942800 -13.659000 -77.930500 24.328600 0.000019 0.000005 52.039200 -15.427400 -101.725000 22.291600 -0.000001 0.000005 29.515200 4.755750 12.143000 12.994500 -0.242716 -4.980390 89.986100 0.085288 -80.749300 -5.348130 -0.000001 -0.000004 -67.655700 -17.319100 -77.330600 -24.328900 0.000322 -0.000009 23.011100 -6.860680 -105.710000 -22.291500 -0.000108 -0.000004 35.438200 5.305140 -0.072465 -2.192480 -6.469440 -0.000000 -174.981000 -12.543200 -5.701370 39.081100 -0.000007 -0.000012 -0.148679 0.229552 32.931100 40.985400 -0.000006 -0.000013 0.783442 5.788280 -67.365500 11.754300 -0.000000 0.000003 -0.000096 -0.000989 -16.615500 -2.192510 6.469440 -0.000001 176.013000 21.133100 175.401000 -39.081100 -0.002282 -0.040193 -0.080468 0.132739 32.253900 -40.985400 0.000008 0.000006 5.727760 13.148300 -68.298600 -11.754300 -0.000006 -0.000006 -0.003034 -0.040990 -18.240100
0.000000 0.000000 0.000000 0.000000 0.000000 -0.000000 -0.326618 90.744000 -6.132000 89.103000 -3.194580 9.710430 15.735700 0.000005 -0.000001 89.319700 75.567500 -90.054400 8.984550 -0.406207 -0.000000 21.094900 -0.419206 -1.396890 16.377300 -0.000001 -0.000001 11.578200 -3.995200 3.182720 6.456720 -0.000001 -0.000000 -11.460100 -3.938520 1.037780 12.994200 -0.242716 4.980390 -88.837300 -4.303660 -74.865600 5.348090 -0.000007 -0.000001 -73.878500 -13.641000 -77.830100 24.328600 0.000019 0.000005 52.030400 -15.704200 -101.928000 22.291600 -0.000001 0.000005 29.689100 4.755180 12.153200 12.994500 -0.242716 -4.980390 89.985700 0.087569 -80.754400 -5.348130 -0.000001 -0.000004 -67.660100 -17.370200 -77.350600 -24.328900 0.000322 -0.000009 22.980700 -6.898200 -105.813000 -22.291500 -0.000108 -0.000004 35.469500 5.309400 -0.193054 -2.192480 -6.469440 -0.000000 -174.969000 -12.570800 -5.690690 39.081100 -0.000007 -0.000012 -0.149367 0.230813 32.908500 40.985400 -0.000006 -0.000013 0.780560 5.781720 -67.376000 11.754300 -0.000000 0.000003 -0.000090 -0.000939 -16.613700 -2.192510 6.469440 -0.000001 176.037000 21.132100 175.406000 -39.081100 -0.002282 -0.040193 -0.077127 0.127544 32.233900 -40.985400 0.000008 0.000006 5.823700 13.142900 -68.334800 -11.754300 -0.000006 -0.000006 -0.003016 -0.040778 -18.231500
